<svg width="176" height="29" viewBox="0 0 176 29" fill="none" xmlns="http://www.w3.org/2000/svg">
    <path d="M61.8149 11.1629C60.7061 10.3735 59.8731 9.99654 58.1601 9.99654C56.318 9.99654 55.2151 10.6799 54.4759 11.4515V9.84338H49.3486V28.5582H54.4759V16.5058C55.0508 15.3924 55.8663 14.8741 57.0337 14.8741C57.8491 14.8741 58.1894 15.0272 58.1894 15.0272L58.4006 15.1332L62.1317 11.3868L61.8149 11.1629Z" fill="#8C6DEF"/>
    <path d="M75.1201 10.5208C74.199 10.079 73.1431 9.87874 71.782 9.87874C68.9661 9.87874 66.426 10.8448 64.6308 12.6002C62.8298 14.3616 61.8384 16.8533 61.8384 19.6279C61.8384 22.3494 62.6421 24.6585 64.1674 26.3138C65.7044 27.9868 67.8691 28.8645 70.4152 28.8645C72.2396 28.8645 73.8177 28.2872 75.1142 27.1562V28.5523H80.2415V0.0824738L75.1142 5.20151V10.5208H75.1201ZM71.9815 14.7563C73.0609 14.7563 74.0876 15.0567 75.1201 15.6693V22.426C74.4513 23.0681 73.1489 24.0341 71.3538 24.0341C69.324 24.0341 67.2766 22.6262 67.2766 19.4747C67.2825 16.2348 69.7171 14.7563 71.9815 14.7563Z" fill="#8C6DEF"/>
    <path d="M124.698 9.88462C118.89 9.88462 114.836 13.8137 114.836 19.4394C114.836 25.065 118.89 28.9941 124.698 28.9941C130.506 28.9941 134.559 25.065 134.559 19.4394C134.559 13.8137 130.506 9.88462 124.698 9.88462ZM124.698 24.1519C122.134 24.1519 120.274 22.1668 120.274 19.4335C120.274 16.6766 122.093 14.7562 124.698 14.7562C127.285 14.7562 129.162 16.7237 129.162 19.4335C129.168 22.2551 127.373 24.1519 124.698 24.1519Z" fill="#8C6DEF"/>
    <path d="M150.064 10.5208C149.143 10.079 148.087 9.87873 146.726 9.87873C143.91 9.87873 141.37 10.8448 139.575 12.6002C137.774 14.3616 136.783 16.8533 136.783 19.6279C136.783 22.3494 137.586 24.6585 139.112 26.3138C140.649 27.9868 142.813 28.8645 145.359 28.8645C147.184 28.8645 148.762 28.2872 150.059 27.1562V28.5523H155.186V0.07658L150.064 5.23685V10.5208ZM146.92 14.7562C147.999 14.7562 149.026 15.0567 150.059 15.6693V22.426C149.39 23.0681 148.087 24.0341 146.292 24.0341C144.262 24.0341 142.215 22.6262 142.215 19.4747C142.221 16.2348 144.656 14.7562 146.92 14.7562Z" fill="#8C6DEF"/>
    <path d="M173.436 12.2115C171.852 10.7093 169.694 9.88462 167.37 9.88462C164.525 9.88462 162.091 10.8507 160.342 12.6768C158.688 14.4028 157.779 16.8003 157.779 19.4394C157.779 25.1534 161.698 28.9941 167.529 28.9941C171.055 28.9941 172.762 28.0928 174.862 26.3079L175.132 26.0782L172.322 23.2624L172.093 23.4451C171.248 24.1284 170.233 24.582 167.986 24.582C165.393 24.582 163.598 23.2978 163.117 21.13H175.642L175.713 20.8944C175.918 20.1934 176 19.4865 176 18.379C175.994 15.9579 175.085 13.7666 173.436 12.2115ZM167.183 14.285C168.338 14.285 169.295 14.6443 169.958 15.3159C170.497 15.8696 170.814 16.6177 170.861 17.4601H162.994C163.551 15.3571 164.959 14.285 167.183 14.285Z" fill="#8C6DEF"/>
    <path d="M39.892 10.5856C39.1177 10.297 37.7156 9.89051 36.7711 9.89051C33.8613 9.89051 31.2155 10.8801 29.3089 12.6709C27.4375 14.4323 26.405 16.8416 26.405 19.4453C26.405 22.2492 27.2439 24.635 28.822 26.3492C30.4236 28.081 32.6763 29 35.3338 29C36.9881 29 38.5897 28.4698 39.8392 27.5332V28.57H44.9665V9.84338H39.892V10.5856ZM39.8334 22.5261C39.0766 23.3037 37.698 24.1696 36.1492 24.1696C33.4917 24.1696 31.8374 22.4377 31.8374 19.6455C31.8374 17.2186 33.3509 14.7739 36.73 14.7739C37.7332 14.7739 38.7481 15.0154 39.8334 15.5161V22.5261Z" fill="#8C6DEF"/>
    <path d="M17.8341 12.129H5.43822V0.56551H0V28.5877L5.43822 28.57V17.2775H17.8341V28.5818H23.2371V0.56551H17.8341V12.129Z" fill="#8C6DEF"/>
    <path d="M111.445 8.51798C110.736 6.77432 109.709 5.23685 108.383 3.95267C105.755 1.40199 102.071 0 98.0171 0C93.9281 0 90.2146 1.48446 87.563 4.17652C84.9583 6.82145 83.521 10.4678 83.521 14.4381C83.521 16.5647 83.8906 18.5558 84.618 20.3642C85.322 22.1079 86.3486 23.6453 87.6686 24.9295C90.285 27.4802 93.9633 28.8822 98.0171 28.8822C100.628 28.8822 102.998 28.3343 105.069 27.2446L106.125 28.4522H112.548L108.929 24.2226C111.269 21.6425 112.554 18.1788 112.554 14.4381C112.554 12.3175 112.179 10.3264 111.445 8.51798ZM98.0171 23.7337C93.0892 23.7337 89.2291 19.6514 89.2291 14.444C89.2291 9.05992 92.925 5.15438 98.0171 5.15438C103.133 5.15438 106.84 9.05992 106.84 14.444C106.84 16.5294 106.312 18.4379 105.303 20.0049L103.068 17.3776H96.5446L101.56 23.0798C100.457 23.5157 99.2666 23.7337 98.0171 23.7337Z" fill="#8C6DEF"/>
</svg>
